<?xml version="1.0" encoding="UTF-8"?>
<svg id="Layer_2" data-name="Layer 2" xmlns="http://www.w3.org/2000/svg" viewBox="0 0 117.86 89.58">
  <defs>
    <style>
      .cls-1 {
        fill: #fff;
      }
    </style>
  </defs>
  <g id="Layer_1-2" data-name="Layer 1">
    <path class="cls-1" d="m105.38,39.32c-4.75,0-8.88,2.66-10.99,6.57l-5.09-2.4c.23-.81.37-1.67.37-2.55,0-3.53-1.98-6.59-4.88-8.15v-8.63c4.74-1.77,8.12-6.33,8.12-11.68,0-6.89-5.59-12.48-12.48-12.48s-12.48,5.59-12.48,12.48c0,5.11,3.08,9.5,7.48,11.43v9.26c-2.55,1.65-4.24,4.5-4.24,7.76,0,1.24.25,2.43.7,3.51l-2.13,1.47c-1.69-2.05-4.25-3.35-7.12-3.35s-5.42,1.3-7.12,3.35l-2.13-1.47c.45-1.08.7-2.27.7-3.51,0-5.1-4.14-9.24-9.24-9.24s-9.24,4.14-9.24,9.24c0,1.21.24,2.36.66,3.42l-2.16,1.49c-1.7-2-4.22-3.28-7.05-3.28s-5.49,1.34-7.18,3.43l-2.11-1.45c.47-1.11.73-2.33.73-3.61,0-5.1-4.14-9.24-9.24-9.24S0,35.83,0,40.94s4.14,9.24,9.24,9.24c2.74,0,5.2-1.2,6.89-3.1l2.24,1.54c-.37,1-.58,2.07-.58,3.19,0,4.59,3.35,8.39,7.74,9.11v1.94c-4.39.72-7.74,4.52-7.74,9.11,0,5.1,4.14,9.24,9.24,9.24s9.24-4.14,9.24-9.24c0-4.59-3.35-8.39-7.74-9.11v-1.93c4.39-.72,7.74-4.52,7.74-9.11,0-1.2-.23-2.33-.65-3.38l2.17-1.49c1.69,1.99,4.21,3.25,7.03,3.25s5.27-1.23,6.96-3.18l2.21,1.52c-.39,1.02-.61,2.13-.61,3.29,0,4.59,3.35,8.39,7.74,9.11v3.81c-6.18.74-10.98,6-10.98,12.38,0,6.89,5.59,12.48,12.48,12.48s12.48-5.59,12.48-12.48c0-6.38-4.8-11.64-10.98-12.38v-3.81c4.39-.72,7.74-4.52,7.74-9.11,0-1.16-.22-2.26-.61-3.29l2.21-1.52c1.69,1.94,4.18,3.18,6.96,3.18,3.15,0,5.92-1.57,7.59-3.98l5.3,2.5c-.26.99-.41,2.03-.41,3.11,0,6.89,5.59,12.48,12.48,12.48s12.48-5.59,12.48-12.48-5.59-12.48-12.48-12.48Zm-96.14,6.85c-2.89,0-5.24-2.35-5.24-5.24s2.35-5.24,5.24-5.24,5.24,2.35,5.24,5.24-2.35,5.24-5.24,5.24Zm23.04,25.78c0,2.89-2.35,5.24-5.24,5.24s-5.24-2.35-5.24-5.24,2.35-5.24,5.24-5.24,5.24,2.35,5.24,5.24Zm-5.24-14.91c-2.89,0-5.24-2.35-5.24-5.24s2.35-5.24,5.24-5.24,5.24,2.35,5.24,5.24-2.35,5.24-5.24,5.24Zm17.79-10.87c-2.89,0-5.24-2.35-5.24-5.24s2.35-5.24,5.24-5.24,5.24,2.35,5.24,5.24-2.35,5.24-5.24,5.24Zm26.28,30.93c0,4.68-3.8,8.48-8.48,8.48s-8.48-3.8-8.48-8.48,3.8-8.48,8.48-8.48,8.48,3.8,8.48,8.48Zm-8.48-20.06c-2.89,0-5.24-2.35-5.24-5.24s2.35-5.24,5.24-5.24,5.24,2.35,5.24,5.24-2.35,5.24-5.24,5.24Zm9.31-44.56c0-4.68,3.8-8.48,8.48-8.48s8.48,3.8,8.48,8.48-3.8,8.48-8.48,8.48-8.48-3.8-8.48-8.48Zm5.48,12.1c.96.24,1.97.38,3,.38.81,0,1.6-.08,2.36-.23v7.28c-.76-.2-1.54-.32-2.36-.32-1.05,0-2.06.18-3,.51v-7.62Zm3,21.59c-2.89,0-5.24-2.35-5.24-5.24s2.35-5.24,5.24-5.24,5.24,2.35,5.24,5.24-2.35,5.24-5.24,5.24Zm24.96,14.11c-4.68,0-8.48-3.8-8.48-8.48s3.8-8.48,8.48-8.48,8.48,3.8,8.48,8.48-3.8,8.48-8.48,8.48Z"/>
  </g>
</svg>