<?xml version="1.0" encoding="UTF-8"?>
<svg id="Layer_2" data-name="Layer 2" xmlns="http://www.w3.org/2000/svg" viewBox="0 0 84.14 70.29">
  <defs>
    <style>
      .cls-1 {
        fill: #fff;
      }

      .cls-2 {
        fill: none;
        stroke: #fff;
        stroke-miterlimit: 10;
        stroke-width: 4px;
      }
    </style>
  </defs>
  <g id="Layer_1-2" data-name="Layer 1">
    <g>
      <path class="cls-2" d="m6.24,2h54.16c2.34,0,4.24,1.9,4.24,4.24v44.69c0,9.58-7.78,17.36-17.36,17.36h-27.92c-9.58,0-17.36-7.78-17.36-17.36V6.24c0-2.34,1.9-4.24,4.24-4.24Z"/>
      <path class="cls-2" d="m64.64,9.18h4.06c7.42,0,13.44,6.02,13.44,13.44v13.73c0,7.42-6.02,13.44-13.44,13.44h-4.06V9.18h0Z"/>
    </g>
    <path class="cls-1" d="m16.95,28.63c5.76,4.66,9.64,11.3,12.55,17.85,0,0-4.04.21-4.04.21,4.88-13.25,14.85-24.47,26.32-32.46,0,0,4.4,6.68,4.4,6.68-11.33,6.58-20.91,15.64-26.58,27.57,0,0-2.03,4.16-2.03,4.16,0,0-2.01-3.95-2.01-3.95-3.61-5.42-7.61-10.45-13.22-13.65,0,0,4.61-6.4,4.61-6.4h0Z"/>
  </g>
</svg>