<?xml version="1.0" encoding="UTF-8"?>
<svg id="Layer_2" xmlns="http://www.w3.org/2000/svg" version="1.1" viewBox="0 0 50 31">
  <!-- Generator: Adobe Illustrator 29.6.0, SVG Export Plug-In . SVG Version: 2.1.1 Build 207)  -->
  <defs>
    <style>
      .st0 {
        fill: #ff1595;
      }
    </style>
  </defs>
  <path class="st0" d="M10.2,18.9c1.5,6.7,7.5,11.7,14.7,11.7s8.3-1.9,11.1-4.9c-3.9-.4-8.5-1.2-13.2-2.4-4.7-1.3-9-2.8-12.6-4.4ZM24.9.4c-8.3,0-15.1,6.8-15.1,15.1s0,.6,0,.9c8.8,4.5,18,7,27.7,7.3,1.5-2.4,2.5-5.2,2.5-8.2C40,7.2,33.2.4,24.9.4Z"/>
  <path class="st0" d="M27.1,8.6C13.3,4.3,1.2,3.8,0,7.5c-1.2,3.7,9.1,10.1,22.8,14.5,13.8,4.3,25.8,4.8,27,1.2,1.2-3.7-9.1-10.1-22.8-14.5h.1ZM23.5,20c-9.2-2.9-16-7.3-15.2-9.9s8.9-2.3,18.1.6c9.2,2.9,16,7.3,15.2,9.9s-8.9,2.3-18.1-.6Z"/>
</svg>