<?xml version="1.0" encoding="UTF-8"?>
<svg id="Layer_2" xmlns="http://www.w3.org/2000/svg" version="1.1" viewBox="0 0 50 50">
  <!-- Generator: Adobe Illustrator 29.6.0, SVG Export Plug-In . SVG Version: 2.1.1 Build 207)  -->
  <defs>
    <style>
      .st0 {
        fill: none;
      }

      .st1 {
        fill: #ff1595;
      }
    </style>
  </defs>
  <path class="st1" d="M10.8,30.4c1.1,5.3,7.4,9.7,14.4,9.7s9.8-2.7,10.7-4.4c-2.8.2-9.2-.1-13.4-1.2-4-.8-8.5-2.1-11.7-4.1ZM24.9,9.9c-8.3,0-15.1,6.8-15.1,15.1s0,.6,0,.9c8.8,4.5,18,7,27.7,7.3,1.5-2.4,2.5-5.2,2.5-8.2,0-8.3-6.8-15.1-15.1-15.1Z"/>
  <path class="st1" d="M27.1,18.1C13.3,13.8,1.2,13.3,0,17c-1.2,3.7,9.1,10.1,22.8,14.5,13.8,4.3,25.8,4.8,27,1.2,1.2-3.7-9.1-10.1-22.8-14.5h.1ZM23.5,29.5c-9.2-2.9-16-7.3-15.2-9.9s8.9-2.3,18.1.6c9.2,2.9,16,7.3,15.2,9.9s-8.9,2.3-18.1-.6Z"/>
  <rect class="st0" width="50" height="50"/>
</svg>