<?xml version="1.0" encoding="UTF-8"?>
<svg id="Layer_2" xmlns="http://www.w3.org/2000/svg" viewBox="0 0 192.02 192.02">
  <defs>
    <style>
      .cls-1 {
        fill: #fff;
      }
    </style>
  </defs>
  <g id="Layer_1-2" data-name="Layer_1">
    <g>
      <path class="cls-1" d="M140.43,18.22c18.4,0,33.37,14.97,33.37,33.37v88.85c0,18.4-14.97,33.37-33.37,33.37H51.58c-18.4,0-33.37-14.97-33.37-33.37V51.58c0-18.4,14.97-33.37,33.37-33.37h88.85M140.43,0H51.58C23.09,0,0,23.09,0,51.58v88.85c0,28.49,23.09,51.58,51.58,51.58h88.85c28.49,0,51.58-23.09,51.58-51.58V51.58c0-28.49-23.09-51.58-51.58-51.58h0Z"/>
      <path class="cls-1" d="M96.01,64.32c17.47,0,31.69,14.22,31.69,31.69s-14.22,31.69-31.69,31.69-31.69-14.22-31.69-31.69,14.22-31.69,31.69-31.69M96.01,46.11c-27.56,0-49.9,22.34-49.9,49.9s22.34,49.9,49.9,49.9,49.9-22.34,49.9-49.9-22.34-49.9-49.9-49.9h0Z"/>
      <circle class="cls-1" cx="145.91" cy="44.25" r="12.46"/>
    </g>
  </g>
</svg>