<?xml version="1.0" encoding="UTF-8"?>
<svg id="Layer_2" xmlns="http://www.w3.org/2000/svg" viewBox="0 0 194.85 194.8">
  <defs>
    <style>
      .cls-1 {
        fill: #fff;
      }
    </style>
  </defs>
  <g id="Layer_1-2" data-name="Layer_1">
    <path class="cls-1" d="M.05,97.24C.05,69.72.12,42.2,0,14.68-.03,7.99,4.64,1.92,10.58.56,12.02.23,13.52.03,14.99.02,69.98,0,124.96-.01,179.95.03c5.37,0,9.86,2.03,12.77,6.81,1.49,2.44,2.12,5.14,2.12,7.97,0,39.43,0,78.86,0,118.29,0,15.5.03,31-.01,46.51-.02,8.02-4.47,13.53-12.33,15.11-.45.09-.93.06-1.4.06-55.87,0-111.74,0-167.61,0-5.44,0-11.48-4.66-12.81-9.98-.38-1.53-.61-3.14-.62-4.71-.04-27.62-.03-55.25-.03-82.87ZM104.03,85.01c-.12-.03-.23-.07-.35-.1v-11.77h-27.57v92.78h1.84c8.27,0,16.54,0,24.81,0,2.03,0,2.03,0,2.03-2.04,0-14.82-.05-29.64.04-44.47.02-3.37.18-6.79.83-10.09.73-3.7,1.75-7.46,5.22-9.8,1.32-.76,2.56-1.78,3.98-2.19,1.33-.39,2.55-1.62,4.14-.93,1.98-.02,3.95-.04,5.93-.06,1.86.61,3.72,1.22,5.58,1.84.11.13.22.25.34.38.12.02.24.05.36.07.22.29.4.61.66.85,3.06,2.92,4.09,6.71,4.67,10.71.1.73.21,1.46.31,2.19.1,1.9.3,3.8.3,5.71.02,15.29.01,30.57.01,45.86,0,.6,0,1.2,0,1.83h29.06c-.24-20.5-.48-40.85-.72-61.2-.12-.73-.23-1.46-.35-2.19-.21-1.46-.42-2.91-.62-4.37-.15-.95-.4-1.9-.42-2.85-.03-1.2-1.28-2.11-.74-3.41-.24-.52-.48-1.03-.71-1.55-.01-.31-.02-.62-.03-.93-.18-.31-.36-.62-.55-.94-.02-.21-.04-.42-.06-.63l-.24-.34c-.72-1.14-1.44-2.28-2.16-3.42-.24-.41-.47-.82-.71-1.23-.49-.63-.98-1.26-1.48-1.89-.03-.2-.06-.4-.1-.6l-.56-.61c-.45-.42-.9-.84-1.34-1.26-.18-.21-.36-.43-.53-.64-.4-.17-.79-.34-1.19-.51h-.05c-.11-.22-.22-.45-.33-.68-.54-.33-1.08-.66-1.61-.99-.08-.08-.16-.17-.25-.25-.31-.03-.62-.07-.93-.1-.73-.39-1.47-.77-2.2-1.16-.73-.31-1.46-.62-2.19-.94-2.04-1.14-4.36-1.09-6.56-1.56-.73-.1-1.46-.21-2.19-.31-.31,0-.62,0-.94,0-.73-.21-1.46-.42-2.19-.62-1.98.1-3.95.21-5.93.31-2.39.42-4.79.83-7.18,1.25-.21.1-.42.19-.62.29-.21,0-.41-.01-.62-.02-.21.19-.42.38-.63.57-1.46.63-2.92,1.26-4.38,1.89-.42.31-.83.63-1.25.94-.31.14-.62.28-.93.42-.12.08-.23.15-.35.23-.1,0-.19.04-.27.09-.21.18-.42.36-.63.54-.51.48-1.02.95-1.52,1.43-.95.98-1.89,1.96-2.84,2.95-.83,1.06-1.66,2.12-2.48,3.18-.21.12-.41.24-.62.36ZM57.68,165.82v-92.69h-28.52v92.69h28.52ZM43.2,27.16c-9.32-.69-16.5,7.68-16.59,15.82-.11,10.06,6.94,17.27,16.6,17.44,8.48.15,16.43-6.52,16.81-16.23.39-9.77-8.07-17.76-16.82-17.03Z"/>
  </g>
</svg>