<?xml version="1.0" encoding="UTF-8"?>
<svg id="Layer_2" xmlns="http://www.w3.org/2000/svg" viewBox="0 0 194.85 192.23">
  <defs>
    <style>
      .cls-1 {
        fill: #fff;
      }
    </style>
  </defs>
  <g id="Layer_1-2" data-name="Layer_1">
    <g>
      <path class="cls-1" d="M163.74,162.21h-64.58l24.03,30.02h-42.01l-22.02-29.56,20.31-30.03h77.84c5.52,0,10-4.48,10-10V39.53c0-5.52-4.48-10-10-10H37.56c-5.52,0-10,4.48-10,10v83.57c0,5.51,4.46,9.98,9.97,10l11.03.03v29.44H10c-5.52,0-10-4.48-10-10V10C0,4.48,4.48,0,10,0h174.85c5.52,0,10,4.48,10,10v142.21c0,5.52-4.48,10-10,10h-21.12Z"/>
      <path class="cls-1" d="M101.99,68.65c-4.46.11-13.14-2.01-16.1,1.76-.76,1.7-.32,4.34,2.18,4.21,10.93,1.59,27.96-3.3,35.49,6.21,3.62,6.26,3.32,14.9-1.55,20.46-4.43,6.57-13.77.76-17.57,5.08.02,3.09.05,6.38-2.74,8.41-7.73,3.92-12.45-.83-11.45-8.85-1.72-2.39-12.01-.41-15.88-1.88-4.58-.83-4.35-7.16-2.11-10.04,2.35-1.49,5.85-.48,8.57-.63,5.41-1.02,28.06,3.5,28.32-2.82,2-7.14-21.44-2.8-26.29-4.21-13.56,1.27-18.15-16.58-9.91-25.29,3.69-3.81,9.62-2.48,14.48-3.26,8.75.35-3.65-14.12,12.37-12.23,7.01.11.78,9.79,5.76,11.61,4.36.65,9.09.27,13.21,1.76,2.1,2.47,2.51,7.19-.56,8.97-2.87,1.5-6.48.46-9.7.75v-.06c-2.18,0-4.36,0-6.54.06Z"/>
    </g>
  </g>
</svg>