<?xml version="1.0" encoding="UTF-8"?>
<svg id="Layer_2" data-name="Layer 2" xmlns="http://www.w3.org/2000/svg" viewBox="0 0 442.92 884.61">
  <defs>
    <style>
      .cls-1 {
        fill: #fff;
      }
    </style>
  </defs>
  <g id="Layer_1-2" data-name="Layer 1">
    <g id="Phone">
      <path d="M5.73,216.71c-3.17,0-5.73-2.57-5.73-5.73v-83.72c0-3.17,2.57-5.73,5.73-5.73s5.73,2.57,5.73,5.73v83.72c0,3.17-2.57,5.73-5.73,5.73Z"/>
      <path d="M437.18,216.71c-3.17,0-5.73-2.57-5.73-5.73v-83.72c0-3.17,2.57-5.73,5.73-5.73s5.73,2.57,5.73,5.73v83.72c0,3.17-2.57,5.73-5.73,5.73Z"/>
      <path d="M437.18,341.64c-3.17,0-5.73-2.57-5.73-5.73v-83.72c0-3.17,2.57-5.73,5.73-5.73s5.73,2.57,5.73,5.73v83.72c0,3.17-2.57,5.73-5.73,5.73Z"/>
      <path id="Screen" class="cls-1" d="M400.21,5.73h-84.76c1.82,2.03,2.94,4.7,2.94,7.64,0,6.33-5.13,11.47-11.47,11.47h-171.69c-6.33,0-11.47-5.13-11.47-11.47,0-2.94,1.12-5.61,2.94-7.64H43.23c-18.31,0-33.15,14.84-33.15,33.15v806.85c0,18.31,14.84,33.15,33.15,33.15h356.99c18.31,0,33.15-14.84,33.15-33.15V38.88c0-18.31-14.84-33.15-33.15-33.15Z"/>
      <path d="M307.3,24.84h-171.69c-6.33,0-11.47-5.13-11.47-11.47s5.13-11.47,11.47-11.47h171.69c6.33,0,11.47,5.13,11.47,11.47s-5.13,11.47-11.47,11.47Z"/>
      <path d="M400.21,884.61H43.23c-21.44,0-38.88-17.44-38.88-38.88V38.88C4.34,17.44,21.79,0,43.23,0h356.99c21.44,0,38.88,17.44,38.88,38.88v806.85c0,21.44-17.44,38.88-38.88,38.88ZM43.23,11.47c-15.12,0-27.42,12.3-27.42,27.42v806.85c0,15.12,12.3,27.42,27.42,27.42h356.99c15.12,0,27.42-12.3,27.42-27.42V38.88c0-15.12-12.3-27.42-27.42-27.42H43.23Z"/>
    </g>
  </g>
</svg>